<svg width="33" height="32" viewBox="0 0 33 32" fill="none" xmlns="http://www.w3.org/2000/svg">
<g clip-path="url(#clip0_57354_393)">
<path d="M16.4707 32C25.3073 32 32.4707 24.8366 32.4707 16C32.4707 7.16344 25.3073 0 16.4707 0C7.63415 0 0.470703 7.16344 0.470703 16C0.470703 24.8366 7.63415 32 16.4707 32Z" fill="#FEA5BB"/>
<path d="M20.9163 15.9814H18.3062V25.5999H14.3515V15.9814H12.4707V12.6011H14.3515V10.4136C14.3515 8.84938 15.0903 6.3999 18.3414 6.3999L21.2707 6.41223V9.69341H19.1453C18.7966 9.69341 18.3064 9.86861 18.3064 10.6148V12.6042H21.2618L20.9163 15.9814Z" fill="white"/>
</g>
<defs>
<clipPath id="clip0_57354_393">
<rect width="32" height="32" fill="white" transform="translate(0.470703)"/>
</clipPath>
</defs>
</svg>
